<?xml version="1.0" encoding="utf-8"?>
<!-- Generator: Adobe Illustrator 16.0.4, SVG Export Plug-In . SVG Version: 6.00 Build 0)  -->
<!DOCTYPE svg PUBLIC "-//W3C//DTD SVG 1.1//EN" "http://www.w3.org/Graphics/SVG/1.1/DTD/svg11.dtd">
<svg version="1.1" id="Capa_1" xmlns="http://www.w3.org/2000/svg" xmlns:xlink="http://www.w3.org/1999/xlink" x="0px" y="0px"
	 width="469.2px" height="319.601px" viewBox="0 74.8 469.2 319.601" enable-background="new 0 74.8 469.2 319.601"
	 xml:space="preserve">
<g>
	<path fill="#FFFFFF" d="M22.202,77.023C25.888,75.657,29.832,74.8,34,74.8h401.2c4.168,0,8.113,0.857,11.799,2.224l-179.758,169.34
		c-18.3,17.252-46.976,17.252-65.281,0L22.202,77.023z M464.188,377.944c3.113-5.135,5.012-11.098,5.012-17.544V108.8
		c0-4.569-0.932-8.915-2.57-12.899L298.411,254.368L464.188,377.944z M283.2,268.463c-13.961,11.961-31.252,18.027-48.6,18.027
		c-17.347,0-34.64-6.061-48.6-18.027L20.692,391.687c4.094,1.741,8.582,2.714,13.308,2.714h401.2c4.727,0,9.215-0.973,13.309-2.714
		L283.2,268.463z M2.571,95.9C0.932,99.885,0,104.23,0,108.8v251.6c0,6.446,1.897,12.409,5.012,17.544l165.777-123.576L2.571,95.9z"
		/>
</g>
</svg>
