<?xml version="1.0" encoding="utf-8"?>
<!-- Generator: Adobe Illustrator 16.0.4, SVG Export Plug-In . SVG Version: 6.00 Build 0)  -->
<!DOCTYPE svg PUBLIC "-//W3C//DTD SVG 1.1//EN" "http://www.w3.org/Graphics/SVG/1.1/DTD/svg11.dtd">
<svg version="1.1" id="Layer_1" xmlns="http://www.w3.org/2000/svg" xmlns:xlink="http://www.w3.org/1999/xlink" x="0px" y="0px"
	 width="355.687px" height="93.869px" viewBox="0 0 355.687 93.869" enable-background="new 0 0 355.687 93.869"
	 xml:space="preserve">
<g>
	<defs>
		<rect id="SVGID_1_" x="-75.551" y="-198.785" width="500" height="500"/>
	</defs>
	<clipPath id="SVGID_2_">
		<use xlink:href="#SVGID_1_"  overflow="visible"/>
	</clipPath>
	<path clip-path="url(#SVGID_2_)" fill="#FFFFFF" d="M113.049,77.963c-18.089,0-31.318-12.96-31.318-31.049
		c0-18.089,13.229-31.049,31.318-31.049c18.18,0,31.409,12.96,31.409,31.049C144.458,65.003,131.229,77.963,113.049,77.963
		 M113.049,27.205c-11.069,0-18.179,8.459-18.179,19.709c0,11.16,7.11,19.708,18.179,19.708c11.07,0,18.27-8.549,18.27-19.708
		C131.319,35.664,124.119,27.205,113.049,27.205"/>
	<path clip-path="url(#SVGID_2_)" fill="#FFFFFF" d="M185.589,77.963c-18.269,0-27.088-10.26-27.088-25.021V22.705
		c0-3.51,2.88-6.39,6.569-6.39c3.51,0,6.39,2.88,6.39,6.39v29.788c0,8.37,4.858,14.13,14.129,14.13c9.27,0,14.039-5.76,14.039-14.13
		V22.705c0-3.51,2.88-6.39,6.66-6.39c3.51,0,6.39,2.88,6.39,6.39v30.148C212.678,67.793,203.858,77.963,185.589,77.963"/>
	<path clip-path="url(#SVGID_2_)" fill="#FFFFFF" d="M275.317,77.423c-2.43,0-4.86-1.17-6.39-3.24l-26.639-36.449v33.389
		c0,3.42-2.881,6.3-6.48,6.3c-3.42,0-6.3-2.88-6.3-6.3V24.505c0-4.23,3.601-8.19,8.37-8.19c2.7,0,5.399,1.26,7.02,3.51
		l25.559,34.739V22.615c0-3.42,2.881-6.3,6.48-6.3c3.42,0,6.3,2.88,6.3,6.3v47.068C283.237,73.732,279.907,77.423,275.317,77.423"/>
	<path clip-path="url(#SVGID_2_)" fill="#FFFFFF" d="M323.827,76.883h-16.469c-3.96,0-7.2-3.24-7.2-7.2V24.055
		c0-3.96,3.24-7.2,7.2-7.2h16.469c18.81,0,31.859,11.97,31.859,30.059C355.687,65.002,342.637,76.883,323.827,76.883
		 M323.827,28.104h-10.89v37.528h10.89c11.88,0,18.81-8.55,18.81-18.719C342.637,36.293,336.157,28.104,323.827,28.104"/>
	<path clip-path="url(#SVGID_2_)" fill="#FFFFFF" d="M56.952,45.549c8.217-1.688,15.002-9.014,15.002-19.972
		c0-11.626-8.473-22.201-25.068-22.201H19.907l-1.115-0.987C16.435,0.319,12.263,0,9.969,0C7.676,0,3.503,0.319,1.146,2.389L0,3.408
		v1.529v83.995v1.529l1.146,1.019c2.357,2.07,6.53,2.39,8.823,2.39c2.294,0,6.466-0.319,8.823-2.39l1.115-0.987h28.444
		c16.564,0,25.323-10.447,25.323-23.508C73.642,55.996,66.221,46.982,56.952,45.549 M16.435,4.905v31.789
		c-3.79-1.019-9.364-1.019-13.155,0V4.905C5.606,2.867,14.11,2.867,16.435,4.905 M3.28,88.932V52.97
		c2.931-0.732,7.613-1.337,13.155,0.064v35.865C14.11,90.97,5.606,90.97,3.28,88.932 M19.907,19.303h22.934
		c6.275,0,10.193,4.045,10.193,9.523c0,5.479-3.918,9.397-10.193,9.397H19.907V19.303z M43.478,74.406H19.907V54.181h23.571
		c7.294,0,11.212,4.714,11.212,10.193C54.722,70.617,50.549,74.406,43.478,74.406"/>
</g>
</svg>
