<svg enable-background="new 84.34 830.75 1880 387.16" height="387.16" viewBox="84.34 830.75 1880 387.16" width="1880" xmlns="http://www.w3.org/2000/svg"><g fill="#fff"><path d="m803.87 1106.58c0 19.39-3.851 35.689-11.54 48.89-7.69 13.22-17.891 23.82-30.59 31.851-12.7 8.029-27.17 13.8-43.37 17.3-16.22 3.51-32.86 5.27-49.9 5.27h-141.42v-355.071h141.42c13.7 0 27.74 1.43 42.12 4.26 14.38 2.85 27.41 7.689 39.12 14.55 11.7 6.86 21.229 16.13 28.58 27.83 7.36 11.71 11.03 26.58 11.03 44.64 0 19.73-5.34 36.03-16.051 48.891-10.699 12.88-24.75 22.149-42.119 27.84v.99c10.029 1.689 19.47 4.77 28.33 9.279 8.859 4.521 16.55 10.28 23.06 17.311 6.53 7.01 11.71 15.21 15.56 24.561 3.84 9.388 5.77 19.919 5.77 31.608zm-97.28-148.94c0-12.04-4.609-20.81-13.8-26.33-9.19-5.52-22.82-8.279-40.86-8.279h-42.13v73.22h46.14c16.051 0 28.511-3.26 37.36-9.78 8.85-6.521 13.29-16.121 13.29-28.831zm11.52 140.92c0-14.71-5.521-24.909-16.54-30.59-11.03-5.68-25.75-8.53-44.131-8.53h-47.649v81.24h48.149c6.681 0 13.61-.58 20.801-1.74 7.189-1.18 13.71-3.27 19.56-6.279 5.851-3.01 10.62-7.26 14.29-12.78 3.69-5.522 5.52-12.621 5.52-21.321z"/><path d="m1100.76 1084.01c0 20.4-3.689 38.86-11.029 55.41-7.36 16.55-17.391 30.59-30.091 42.13-12.699 11.54-27.409 20.48-44.13 26.84-16.72 6.341-34.6 9.521-53.66 9.521-18.729 0-36.529-3.18-53.409-9.521-16.88-6.35-31.591-15.3-44.13-26.84-12.53-11.54-22.49-25.58-29.83-42.13-7.36-16.55-11.03-35.02-11.03-55.41 0-20.38 3.67-38.779 11.03-55.17 7.35-16.38 17.3-30.25 29.83-41.609 12.55-11.36 27.25-20.07 44.13-26.091 16.88-6.02 34.689-9.02 53.409-9.02 19.061 0 36.931 3 53.66 9.02 16.73 6.021 31.431 14.721 44.13 26.091 12.7 11.369 22.73 25.239 30.091 41.609 7.339 16.39 11.029 34.79 11.029 55.17zm-79.24 0c0-8.02-1.34-15.87-4-23.569-2.68-7.69-6.529-14.46-11.539-20.311-5.011-5.85-11.211-10.62-18.551-14.29-7.359-3.689-15.89-5.52-25.58-5.52-9.689 0-18.22 1.83-25.58 5.52-7.35 3.67-13.449 8.44-18.289 14.29-4.851 5.851-8.53 12.62-11.03 20.311-2.5 7.689-3.761 15.54-3.761 23.569 0 8.03 1.25 15.891 3.761 23.58 2.51 7.69 6.27 14.62 11.28 20.8 5.01 6.19 11.189 11.12 18.55 14.79 7.359 3.69 15.87 5.521 25.58 5.521 9.689 0 18.22-1.83 25.569-5.521 7.36-3.67 13.551-8.6 18.57-14.79 5.01-6.18 8.77-13.109 11.28-20.8 2.51-7.69 3.74-15.56 3.74-23.58z"/><path d="m1297.33 1209.89v-34.6h-1.01c-3.011 5.69-6.94 11.03-11.78 16.05-4.851 5.01-10.53 9.36-17.05 13.04-6.511 3.69-13.71 6.681-21.561 9.03-7.85 2.33-16.13 3.5-24.82 3.5-16.72 0-30.84-3-42.38-9.02-11.54-6.021-20.899-13.801-28.09-23.32-7.189-9.54-12.37-20.4-15.54-32.6-3.18-12.2-4.77-24.66-4.77-37.36v-154.46h82.75v135.399c0 7.011.5 13.71 1.5 20.07 1.01 6.35 2.92 12.03 5.779 17.04 2.841 5.01 6.601 8.96 11.28 11.8 4.681 2.841 10.86 4.25 18.55 4.25 14.381 0 25.32-5.34 32.86-16.05 7.521-10.689 11.28-23.23 11.28-37.61v-134.899h82.25v249.74z"/><path d="m1574.66 1209.89v-136.41c0-7.011-.59-13.7-1.76-20.07-1.17-6.34-3.101-11.94-5.76-16.8-2.681-4.841-6.44-8.69-11.291-11.54-4.84-2.841-10.949-4.261-18.289-4.261-7.36 0-13.801 1.431-19.32 4.261-5.521 2.85-10.11 6.77-13.78 11.779-3.69 5.03-6.44 10.79-8.28 17.311-1.83 6.51-2.75 13.28-2.75 20.31v135.4h-82.75v-249.72h79.74v34.6h1.01c3-5.34 6.93-10.62 11.78-15.8 4.84-5.17 10.53-9.61 17.05-13.28 6.51-3.689 13.61-6.68 21.301-9.03 7.689-2.329 15.869-3.51 24.569-3.51 16.72 0 30.931 3.01 42.64 9.03 11.7 6.02 21.131 13.78 28.33 23.32 7.17 9.52 12.36 20.479 15.541 32.84 3.17 12.37 4.77 24.75 4.77 37.12v154.46h-82.75v-.01z"/><path d="m1888.6 1209.89v-32.6h-1.01c-8.02 12.7-19.47 22.49-34.35 29.34-14.881 6.84-30.67 10.271-47.391 10.271-18.729 0-35.43-3.67-50.14-11.03-14.72-7.351-27.17-17.13-37.36-29.33-10.189-12.2-17.979-26.33-23.319-42.38-5.36-16.05-8.021-32.771-8.021-50.16 0-17.37 2.75-34.01 8.271-49.9 5.52-15.869 13.37-29.85 23.579-41.869 10.181-12.04 22.561-21.561 37.11-28.591 14.55-7.01 30.841-10.529 48.9-10.529 18.38 0 33.92 3.51 46.63 10.529 12.7 7.03 22.57 14.721 29.6 23.08h.99v-155.971h82.25v379.14zm-3.01-125.38c0-8.02-1.43-15.87-4.26-23.569-2.83-7.7-6.86-14.551-12.04-20.57-5.181-6.02-11.45-10.86-18.8-14.53-7.36-3.689-15.721-5.52-25.08-5.52-9.69 0-18.221 1.83-25.58 5.52-7.35 3.67-13.54 8.44-18.551 14.29-5.01 5.851-8.77 12.62-11.279 20.311-2.51 7.689-3.76 15.54-3.76 23.569 0 8.03 1.25 15.971 3.76 23.82 2.51 7.86 6.27 14.79 11.279 20.811 5.011 6.02 11.211 10.859 18.551 14.529 7.359 3.69 15.89 5.521 25.58 5.521 9.359 0 17.72-1.83 25.08-5.521 7.35-3.67 13.609-8.51 18.8-14.529 5.19-6.021 9.2-12.86 12.04-20.57 2.84-7.672 4.26-15.532 4.26-23.562z"/><path d="m398.39 1210.01v-202.38h-91.16v149.53z"/><path d="m286.95 1145.4v-290.7h-91.17v237.85z"/><path d="m175.51 1080.8v-164.33h-91.17v111.48z"/></g></svg>