<?xml version="1.0" encoding="utf-8"?>
<!-- Generator: Adobe Illustrator 16.0.4, SVG Export Plug-In . SVG Version: 6.00 Build 0)  -->
<!DOCTYPE svg PUBLIC "-//W3C//DTD SVG 1.1//EN" "http://www.w3.org/Graphics/SVG/1.1/DTD/svg11.dtd">
<svg version="1.1" id="Layer_1" xmlns="http://www.w3.org/2000/svg" xmlns:xlink="http://www.w3.org/1999/xlink" x="0px" y="0px"
	 width="473.703px" height="603.546px" viewBox="285.696 196.403 473.703 603.546"
	 enable-background="new 285.696 196.403 473.703 603.546" xml:space="preserve">
<path fill="#FFFFFF" d="M651.879,489.268c52.838-10.854,96.46-57.959,96.46-128.41c0-74.752-54.477-142.746-161.177-142.746H413.696
	l-7.168-6.349c-15.155-13.312-41.984-15.36-56.729-15.36c-14.746,0-41.575,2.048-56.73,15.36l-7.373,6.554v9.831v540.058v9.83
	l7.373,6.554c15.155,13.312,41.984,15.36,56.73,15.36c14.745,0,41.574-2.049,56.729-15.36l7.168-6.349h182.886
	c106.496,0,162.816-67.175,162.816-151.143C759.193,556.441,711.476,498.483,651.879,489.268z M391.373,227.942v204.391
	c-24.371-6.554-60.211-6.554-84.583,0V227.942C321.741,214.835,376.423,214.835,391.373,227.942z M306.79,768.205v-231.22
	c18.842-4.71,48.947-8.602,84.583,0.41V768C376.423,781.312,321.741,781.312,306.79,768.205z M413.696,320.512h147.456
	c40.346,0,65.536,26.009,65.536,61.235s-25.19,60.416-65.536,60.416H413.696V320.512z M565.248,674.816H413.696V544.768h151.552
	c46.899,0,72.09,30.311,72.09,65.536C637.542,650.445,610.714,674.816,565.248,674.816z"/>
</svg>
