<svg width="100" height="100" viewBox="0 0 100 100" fill="none" xmlns="http://www.w3.org/2000/svg">
<path d="M15.5156 36.9512C17.8106 36.9512 19.0313 35.6817 19.0313 33.3868V24.6465C19.0313 20.9844 21.0332 19.0801 24.5489 19.0801H33.5332C35.8282 19.0801 37.0977 17.8106 37.0977 15.5645C37.0977 13.2696 35.8282 12 33.5332 12H24.4512C16.1504 12 12 16.1016 12 24.3047V33.3868C12 35.6817 13.2696 36.9512 15.5156 36.9512ZM84.4121 36.9512C86.7071 36.9512 87.9278 35.6817 87.9278 33.3868V24.3047C87.9278 16.1016 83.8262 12 75.4766 12H66.3946C64.0996 12 62.8301 13.2696 62.8301 15.5645C62.8301 17.8106 64.0996 19.0801 66.3946 19.0801H75.3789C78.8946 19.0801 80.8965 20.9844 80.8965 24.6465V33.3868C80.8965 35.6817 82.166 36.9512 84.4121 36.9512ZM24.4512 87.9766H33.5332C35.8282 87.9766 37.0977 86.7071 37.0977 84.461C37.0977 82.1661 35.8282 80.8965 33.5332 80.8965H24.5489C21.0332 80.8965 19.0313 78.9922 19.0313 75.3301V66.6387C19.0313 64.295 17.7617 63.0254 15.5156 63.0254C13.2207 63.0254 12 64.295 12 66.6387V75.6719C12 83.875 16.1504 87.9766 24.4512 87.9766ZM66.3946 87.9766H75.4766C83.8262 87.9766 87.9278 83.875 87.9278 75.6719V66.6387C87.9278 64.295 86.6582 63.0254 84.4121 63.0254C82.1172 63.0254 80.8965 64.295 80.8965 66.6387V75.3301C80.8965 78.9922 78.8946 80.8965 75.3789 80.8965H66.3946C64.0996 80.8965 62.8301 82.1661 62.8301 84.461C62.8301 86.7071 64.0996 87.9766 66.3946 87.9766Z" fill="black"/>
<path d="M39.4413 73.621H62.3905C67.3222 73.621 69.7636 71.0331 69.7636 66.1015V49.2558H51.4531C48.5234 49.2558 46.8144 47.498 46.8144 44.5683V26.2578H39.4413C34.5097 26.2578 32.0195 28.8456 32.0195 33.7773V66.1015C32.0195 71.082 34.5097 73.621 39.4413 73.621ZM52.6738 44.5195H69.5683C69.373 43.4453 68.6405 42.371 67.371 41.1015L54.9198 28.6503C53.6503 27.3808 52.6249 26.6484 51.5019 26.4531V43.3964C51.5019 44.1288 51.9413 44.5195 52.6738 44.5195Z" fill="black"/>
</svg>
