<svg width="458" height="129" viewBox="0 0 458 129" fill="none" xmlns="http://www.w3.org/2000/svg">
<path fill-rule="evenodd" clip-rule="evenodd" d="M54.8359 0.525459C42.6155 2.88697 26.976 10.702 17.8415 19.0118C7.94113 28.0182 3.37315 35.6291 1.05122 46.9885C-0.814051 56.1118 -0.205648 68.86 2.94524 86.6852C3.32367 88.8276 3.89343 92.3696 4.21106 94.5563C4.97216 99.7949 7.52595 105.009 10.7513 107.909C12.7419 109.699 14.8617 110.701 26.1716 115.205C50.611 124.936 63.1915 128.046 78.1122 128.046C89.8189 128.046 96.9897 124.866 106.227 115.578C117.42 104.321 126.619 84.5028 127.891 68.9024C128.856 57.0581 123.397 42.5436 112.648 28.3735C109.638 24.4064 102.714 17.3332 97.8356 13.2431C89.7369 6.45258 83.8117 3.0604 76.8172 1.21068C72.1205 -0.0315799 59.7206 -0.418016 54.8359 0.525459Z" fill="#FF8B61" fill-opacity="0.33"/>
<path fill-rule="evenodd" clip-rule="evenodd" d="M47.8604 12.1366C37.1867 13.2525 26.8792 19.1193 23.3277 26.1007C17.813 36.9393 13.2007 52.1829 11.4377 65.3925C10.3608 73.4611 10.3495 86.7069 11.4151 90.7773C12.8095 96.1007 16.5537 101.577 21.855 106.048C27.7289 111.001 40.9814 116.636 52.5561 119.101C58.4187 120.35 70.1716 120.847 75.865 120.087C85.722 118.771 95.1652 114.004 101.633 107.078C105.534 102.902 107.608 99.0909 110.188 91.3607C113.418 81.6851 114.203 76.0573 114.206 62.5404C114.211 43.5116 112.788 37.453 106.466 29.5871C104.074 26.6106 98.4212 22.2537 94.2387 20.1632C87.1824 16.6362 77.4296 13.6955 69.2097 12.6159C63.5216 11.8694 52.7343 11.6267 47.8604 12.1366Z" fill="#FF8B61" fill-opacity="0.66"/>
<path fill-rule="evenodd" clip-rule="evenodd" d="M55.2916 19.8553C42.1395 22.821 31.8324 28.8103 25.7314 37.0321C22.0649 41.9728 17.6176 53.327 16.4055 60.8395C15.5266 66.2869 16.0153 73.2927 17.5921 77.8564C23.4801 94.8988 36.0168 107.67 49.6519 110.516C59.3812 112.546 72.2958 110.865 84.4069 105.992C90.5211 103.531 93.836 101.456 96.7159 98.2844C102.331 92.1005 107.344 80.8513 109.049 70.6093C110.449 62.1958 109.506 57.2998 105.149 50.3656C97.8488 38.7475 89.7958 30.3849 80.1405 24.3965C73.2242 20.107 71.2548 19.4797 64.2612 19.3384C60.3596 19.2592 57.1022 19.4472 55.2916 19.8553Z" fill="#FF8B61"/>
<path d="M56.6107 56.2397C64.1359 53.1355 66.1209 48.7314 69.4714 49.2731C72.8219 49.8149 73.6139 55.464 73.2061 57.935C72.7984 60.4061 70.6974 67.3693 66.0739 69.9136C60.15 73.1735 55.8017 74.3841 49.5386 73.4406C43.2754 72.4971 40.6067 68.0304 40.0135 67.0216C39.4203 66.0129 37.8997 60.227 41.3838 59.7517C44.868 59.2764 52.9929 57.7322 56.6107 56.2397Z" fill="black"/>
<path d="M69.433 33.3031C73.355 32.9679 72.2646 37.4827 71.8209 38.6436C71.1604 40.372 69.2341 41.2849 67.7652 39.996C66.2963 38.7072 66.3913 36.9401 66.9647 34.9909C67.3606 33.6457 68.837 33.31 69.433 33.3031Z" fill="black"/>
<path d="M34.5741 44.3065C38.4961 43.9712 37.5955 48.0479 36.962 49.647C36.3286 51.2462 34.3752 52.2882 32.9063 50.9994C31.4375 49.7106 31.8542 47.0092 32.1333 45.9904C32.4124 44.9716 33.9782 44.3134 34.5741 44.3065Z" fill="black"/>
<path d="M178.618 90.6387C167.705 90.6387 160.71 86.2808 158.586 80.4946C158.22 79.5425 158 78.5171 158 77.5283C158 74.5986 160.014 72.6577 162.871 72.6577C165.141 72.6577 166.643 73.5366 167.961 75.8804C169.682 79.9087 173.82 81.7397 178.874 81.7397C184.807 81.7397 188.835 78.8833 188.835 75.0015C188.835 71.5225 186.345 69.5449 179.716 68.1899L174.113 67.0913C163.566 65.0039 158.403 59.9502 158.403 52.0767C158.403 42.4087 166.826 36 178.581 36C188.249 36 195.537 40.0649 197.88 46.9497C198.137 47.6821 198.283 48.4512 198.283 49.4033C198.283 52.04 196.379 53.8345 193.559 53.8345C191.069 53.8345 189.531 52.8457 188.286 50.5752C186.528 46.5835 183.122 44.9355 178.581 44.9355C173.125 44.9355 169.499 47.499 169.499 51.3809C169.499 54.6401 172.026 56.6543 178.288 57.8994L183.854 59.0347C195.061 61.2686 199.895 65.7729 199.895 73.793C199.895 84.1201 191.801 90.6387 178.618 90.6387Z" fill="black"/>
<path d="M223.662 90.6021C211.833 90.6021 204.326 82.8384 204.326 70.1309C204.326 57.5698 211.796 49.6597 223.588 49.6597C231.462 49.6597 238.017 53.4683 240.141 59.0347C240.507 59.9502 240.727 60.9023 240.727 61.6714C240.727 64.3081 238.676 65.8462 236.149 65.8462C234.025 65.8462 232.744 65.0039 231.645 63.063C229.704 59.6206 227.324 58.0459 223.918 58.0459C218.498 58.0459 215.166 62.5137 215.166 70.0942C215.166 77.8213 218.498 82.2158 223.845 82.2158C227.58 82.2158 229.887 80.3848 231.535 77.6016C232.963 75.3677 234.135 74.4521 236.406 74.4521C238.896 74.4521 240.91 76.1001 240.91 78.7368C240.91 79.5791 240.69 80.458 240.214 81.52C237.871 86.8667 231.169 90.6021 223.662 90.6021Z" fill="black"/>
<path d="M258.232 90.3823C250.761 90.3823 245.085 85.5483 245.085 78.4805C245.085 71.3394 250.578 67.2012 260.393 66.6152L270.28 66.0293V63.4292C270.28 59.7671 267.717 57.6431 263.688 57.6431C260.429 57.6431 258.452 58.7051 256.071 61.7812C254.899 63.0996 253.544 63.7588 251.823 63.7588C249.223 63.7588 247.355 62.0742 247.355 59.6572C247.355 58.8149 247.539 58.0459 247.905 57.2402C249.736 52.5527 256.035 49.6597 264.165 49.6597C274.235 49.6597 280.791 54.8599 280.791 62.77V85.1455C280.791 88.6978 278.63 90.5288 275.59 90.5288C272.697 90.5288 270.683 88.9175 270.463 85.7681V83.7539H270.244C268.046 87.9287 263.139 90.3823 258.232 90.3823ZM261.748 82.6553C266.435 82.6553 270.28 79.6157 270.28 75.3677V72.5112L262.004 73.0239C258.012 73.3169 255.742 75.1113 255.742 77.8945C255.742 80.8242 258.159 82.6553 261.748 82.6553Z" fill="black"/>
<path d="M293.059 90.5288C289.946 90.5288 287.712 88.6245 287.712 84.9624V55.0796C287.712 51.7471 289.653 49.6963 292.875 49.6963C296.098 49.6963 298.222 51.7471 298.222 55.1162V57.3135H298.442C300.529 52.4429 304.484 49.7695 310.527 49.7695C319.243 49.7695 324.15 55.2627 324.15 64.4546V84.9624C324.15 88.6245 321.916 90.5288 318.803 90.5288C315.654 90.5288 313.457 88.6245 313.457 84.9624V66.6885C313.457 61.5615 311.04 58.6318 306.242 58.6318C301.445 58.6318 298.405 62.1475 298.405 67.2378V84.9624C298.405 88.6245 296.208 90.5288 293.059 90.5288Z" fill="black"/>
<path d="M337.37 89.7598C333.891 89.7598 331.84 87.6357 331.84 83.9736V42.665C331.84 39.0396 333.891 36.9155 337.37 36.9155H354.838C364.763 36.9155 370.988 42.0059 370.988 50.0991C370.988 55.8853 366.667 60.7192 361.064 61.5615V61.8545C368.242 62.4038 373.515 67.6406 373.515 74.6353C373.515 83.937 366.521 89.7598 355.241 89.7598H337.37ZM342.9 58.8882H350.847C356.743 58.8882 360.112 56.2881 360.112 51.8203C360.112 47.5723 357.146 45.1553 351.982 45.1553H342.9V58.8882ZM342.9 81.52H352.421C358.793 81.52 362.236 78.8101 362.236 73.7563C362.236 68.8125 358.684 66.1758 352.165 66.1758H342.9V81.52Z" fill="black"/>
<path d="M396.916 90.6021C385.051 90.6021 377.47 82.9849 377.47 70.0942C377.47 57.3867 385.161 49.6597 396.916 49.6597C408.671 49.6597 416.362 57.3501 416.362 70.0942C416.362 83.0215 408.781 90.6021 396.916 90.6021ZM396.916 82.4355C402.153 82.4355 405.485 78.0044 405.485 70.1309C405.485 62.3306 402.116 57.8262 396.916 57.8262C391.716 57.8262 388.31 62.3306 388.31 70.1309C388.31 78.0044 391.643 82.4355 396.916 82.4355Z" fill="black"/>
<path d="M427.604 104.298C422.917 104.298 420.39 102.504 420.39 99.2812C420.39 97.1206 421.892 95.7656 424.309 95.7656C425.041 95.7656 425.444 95.8022 426.176 95.8022C428.044 95.8022 430.058 94.9966 431.34 92.25L431.889 90.8584L419.365 57.8262C418.962 56.7275 418.742 55.5557 418.742 54.6768C418.742 51.7837 421.123 49.6963 424.272 49.6963C427.092 49.6963 428.557 50.9048 429.436 54.0176L437.968 81.1904H438.151L446.684 53.9443C447.563 50.978 449.101 49.6963 451.848 49.6963C454.924 49.6963 457.048 51.7104 457.048 54.5303C457.048 55.4092 456.828 56.6543 456.462 57.6797L444.414 90.4189C440.751 100.563 436.21 104.298 427.604 104.298Z" fill="black"/>
</svg>
