<svg width="100" height="100" viewBox="0 0 100 100" fill="none" xmlns="http://www.w3.org/2000/svg">
<path d="M17.4567 77.0388C19.5943 77.0388 20.6859 76.2201 21.459 73.946L25.5979 62.4391H45.8829L50.0218 73.946C50.7951 76.2201 51.8866 77.0388 54.0243 77.0388C56.1619 77.0388 57.5719 75.7653 57.5719 73.6731C57.5719 72.9909 57.4354 72.3996 57.1171 71.49L41.0164 28.191C40.0612 25.644 38.3784 24.416 35.7405 24.416C33.148 24.416 31.4651 25.644 30.5555 28.1455L14.4548 71.5355C14.091 72.445 14 73.0363 14 73.7185C14 75.8108 15.3189 77.0388 17.4567 77.0388ZM27.6447 56.1625L35.6949 33.3305H35.9224L43.9728 56.1625H27.6447Z" fill="black"/>
<path d="M62.0291 88H82.769C84.5883 88 85.5888 87.1813 85.5888 85.6804C85.5888 84.134 84.5883 83.3608 82.769 83.3608H75.0825V17.6847H82.769C84.5883 17.6847 85.5888 16.8205 85.5888 15.2741C85.5888 13.8187 84.5883 13 82.769 13H62.0291C60.1644 13 59.2092 13.8187 59.2092 15.2741C59.2092 16.8205 60.1644 17.6847 62.0291 17.6847H69.67V83.3608H62.0291C60.1644 83.3608 59.2092 84.134 59.2092 85.6804C59.2092 87.1813 60.1644 88 62.0291 88Z" fill="black"/>
</svg>
