<svg width="100" height="100" viewBox="0 0 100 100" fill="none" xmlns="http://www.w3.org/2000/svg">
<path d="M54.5866 90C55.5251 90 56.2849 89.3296 56.4637 88.3017C59.0559 69.6648 61.9162 66.4022 80.4637 64.2123C81.5363 64.1229 82.2961 63.3184 82.2961 62.3352C82.2961 61.3073 81.5363 60.5475 80.4637 60.4134C61.9162 58.2234 59.0559 55.0056 56.4637 36.3687C56.2849 35.2961 55.5251 34.6257 54.5866 34.6257C53.6033 34.6257 52.8436 35.2961 52.7095 36.3687C50.0726 55.0056 47.2123 58.2234 28.6648 60.4134C27.5922 60.5475 26.8771 61.3073 26.8771 62.3352C26.8771 63.3184 27.5922 64.1229 28.6648 64.2123C47.1676 66.7151 49.9833 69.6648 52.7095 88.3017C52.8436 89.3296 53.6033 90 54.5866 90ZM30.8547 51.4749C31.5699 51.4749 32.0615 50.9833 32.1508 50.2681C33.3575 40.9274 33.7597 40.8827 43.4581 39.0056C44.1285 38.9162 44.6648 38.4246 44.6648 37.7095C44.6648 36.9498 44.1285 36.4581 43.4581 36.3687C33.7597 35.1173 33.3129 34.6704 32.1508 25.1508C32.0615 24.3911 31.5699 23.8994 30.8547 23.8994C30.0949 23.8994 29.6033 24.3911 29.514 25.1956C28.4413 34.5363 27.771 34.5363 18.2067 36.3687C17.5363 36.5028 17 36.9498 17 37.7095C17 38.4693 17.5363 38.9162 18.3855 39.0056C27.8603 40.4805 28.4413 40.838 29.514 50.1788C29.6033 50.9833 30.0949 51.4749 30.8547 51.4749ZM47.6146 27.2067C48.1062 27.2067 48.3743 26.8938 48.4637 26.4916C49.581 20.7262 49.4916 20.6369 55.4804 19.4749C55.9274 19.3855 56.2402 19.1173 56.2402 18.6257C56.2402 18.1341 55.9274 17.8659 55.4804 17.7765C49.4916 16.6146 49.581 16.5251 48.4637 10.7598C48.3743 10.3129 48.1062 10 47.6146 10C47.1676 10 46.8994 10.3129 46.8101 10.7598C45.648 16.5251 45.7821 16.6146 39.7933 17.7765C39.3464 17.8659 39.0336 18.1341 39.0336 18.6257C39.0336 19.1173 39.3464 19.3855 39.7933 19.4749C45.7821 20.6369 45.648 20.7262 46.8101 26.4916C46.8994 26.8938 47.1676 27.2067 47.6146 27.2067Z" fill="black"/>
</svg>
