<svg width="100" height="100" viewBox="0 0 100 100" fill="none" xmlns="http://www.w3.org/2000/svg">
<path d="M71.3952 73.9516H71.879C78.6129 73.9516 82.0403 70.5242 82.0403 63.6693V33.9112H64.9436C61.5565 33.9112 59.6613 31.9758 59.6613 28.629V10H42.4436C35.7903 10 32.3226 13.4274 32.3226 19.9999V21.3306H36.7984C41.5968 21.3306 45.5887 22.4597 49.379 26.2903L66.9193 43.7903C70.7097 47.6209 71.3952 51.7742 71.3952 56.4112V73.9516ZM65.6694 29.5967H81.7984C81.5968 28.5081 80.871 27.5403 79.621 26.2903L67.242 13.5887C66.0322 12.3387 65.0242 11.6129 63.9355 11.4516L63.9758 27.8628C63.9758 29.1129 64.4194 29.5967 65.6694 29.5967Z" fill="black"/>
<path d="M27.121 90H56.5564C63.3306 90 66.7177 86.5725 66.7177 79.7177V55.4435H44.4597C40.1855 55.4435 38.2097 53.4274 38.2097 49.1532V26.0483H27.121C20.3468 26.0483 17 29.4758 17 36.3305V79.7177C17 86.6128 20.3468 90 27.121 90ZM44.379 50.7258H66.1935C65.8307 49.3547 65.0646 48.0644 63.4516 46.4112L47.2016 29.7579C45.5887 28.1451 44.258 27.0967 42.8871 26.7338V49.2338C42.8871 50.2015 43.4113 50.7258 44.379 50.7258Z" fill="black"/>
</svg>
