<svg width="101" height="100" viewBox="0 0 101 100" fill="none" xmlns="http://www.w3.org/2000/svg">
<path d="M50.2438 99.6094C57.0472 99.6094 63.4518 98.3073 69.4577 95.7031C75.4635 93.099 80.7614 89.502 85.3512 84.9121C89.941 80.3223 93.5379 75.0244 96.1419 69.0186C98.7465 63.0127 100.049 56.6081 100.049 49.8047C100.049 43.0013 98.7465 36.5967 96.1419 30.5908C93.5379 24.5849 89.941 19.2871 85.3512 14.6973C80.7614 10.1074 75.4554 6.51044 69.4333 3.9063C63.4111 1.3021 56.9984 0 50.195 0C43.3916 0 36.9869 1.3021 30.9811 3.9063C24.9752 6.51044 19.6855 10.1074 15.112 14.6973C10.5384 19.2871 6.94949 24.5849 4.34536 30.5908C1.74118 36.5967 0.439087 43.0013 0.439087 49.8047C0.439087 56.6081 1.74118 63.0127 4.34536 69.0186C6.94949 75.0244 10.5465 80.3223 15.1364 84.9121C19.7262 89.502 25.0241 93.099 31.03 95.7031C37.0358 98.3073 43.4404 99.6094 50.2438 99.6094ZM50.2438 91.3086C44.482 91.3086 39.0947 90.2344 34.0817 88.0859C29.0687 85.9375 24.666 82.9671 20.8737 79.1748C17.0813 75.3825 14.1191 70.9798 11.987 65.9668C9.85476 60.9538 8.78866 55.5664 8.78866 49.8047C8.78866 44.043 9.85476 38.6556 11.987 33.6426C14.1191 28.6296 17.0732 24.2188 20.8493 20.4102C24.6253 16.6016 29.0199 13.6312 34.0329 11.499C39.0459 9.36687 44.4332 8.3008 50.195 8.3008C55.9567 8.3008 61.3441 9.36687 66.3571 11.499C71.3701 13.6312 75.7809 16.6016 79.5895 20.4102C83.3981 24.2188 86.3766 28.6296 88.5251 33.6426C90.6736 38.6556 91.7479 44.043 91.7479 49.8047C91.7479 55.5664 90.6817 60.9538 88.5495 65.9668C86.4173 70.9798 83.455 75.3825 79.6628 79.1748C75.8704 82.9671 71.4596 85.9375 66.4303 88.0859C61.401 90.2344 56.0055 91.3086 50.2438 91.3086Z" fill="black"/>
<path d="M28.7106 67.4316H71.777C73.014 67.4316 73.9824 67.1305 74.6823 66.5283C75.3822 65.9261 75.7321 65.153 75.7321 64.209C75.7321 62.8418 75.1787 61.5479 74.0719 60.3272C72.9652 59.1065 71.8259 57.8776 70.654 56.6406C70.0355 56.0221 69.5635 55.2165 69.238 54.2236C68.9125 53.2308 68.6846 52.1647 68.5544 51.0254C68.4242 49.8861 68.3265 48.8118 68.2614 47.8027C68.1312 42.5944 67.293 38.265 65.7468 34.8145C64.2005 31.364 61.6533 28.9714 58.1051 27.6367C57.5518 25.9114 56.5996 24.4303 55.2487 23.1934C53.8978 21.9564 52.2295 21.3379 50.2438 21.3379C48.2581 21.3379 46.5898 21.9564 45.2389 23.1934C43.888 24.4303 42.9359 25.9114 42.3825 27.6367C38.8343 28.9714 36.2871 31.364 34.7409 34.8145C33.1947 38.265 32.3565 42.5944 32.2262 47.8027C32.1611 48.8118 32.0554 49.8779 31.9089 51.001C31.7624 52.1241 31.5264 53.1901 31.2009 54.1992C30.8754 55.2083 30.4196 56.0221 29.8337 56.6406C28.6944 57.8776 27.5632 59.1065 26.4401 60.3272C25.317 61.5479 24.7555 62.8418 24.7555 64.209C24.7555 65.153 25.1054 65.9261 25.8053 66.5283C26.5052 67.1305 27.4736 67.4316 28.7106 67.4316ZM50.2438 78.7109C52.5225 78.7109 54.4268 78.0029 55.9567 76.5869C57.4866 75.1709 58.333 73.4701 58.4958 71.4844H41.9919C42.1546 73.4701 43.001 75.1709 44.5309 76.5869C46.0609 78.0029 47.9652 78.7109 50.2438 78.7109Z" fill="black"/>
</svg>
