<svg width="217" height="215" viewBox="0 0 217 215" fill="none" xmlns="http://www.w3.org/2000/svg">
<g clip-path="url(#clip0_216_52)">
<path d="M84.61 106.78C90.1439 106.78 94.63 100.995 94.63 93.8599C94.63 86.7244 90.1439 80.9399 84.61 80.9399C79.0761 80.9399 74.59 86.7244 74.59 93.8599C74.59 100.995 79.0761 106.78 84.61 106.78Z" fill="black"/>
<path d="M131.64 106.78C137.174 106.78 141.66 100.995 141.66 93.8599C141.66 86.7244 137.174 80.9399 131.64 80.9399C126.106 80.9399 121.62 86.7244 121.62 93.8599C121.62 100.995 126.106 106.78 131.64 106.78Z" fill="black"/>
<path d="M141.66 123.14H74.51V133.12H141.66V123.14Z" fill="black"/>
<path d="M3.79 132.17C1.79 124.94 3.39 117.5 10.59 115.52L11.87 115.18C19.07 113.18 24.21 118.81 26.19 126.04L31.71 146.2L9.31 152.33L3.79 132.17ZM20.39 131.24C19.6 128.33 17.58 125.99 14.39 126.87C11.2 127.75 10.65 130.78 11.39 133.69L12.93 139.29L21.93 136.84L20.39 131.24Z" fill="black"/>
<path d="M0 110.63L2.79 82.23L9.07 82.85L7.41 99.69L9.41 99.89L11.07 83.05L17.18 83.65L15.5 100.49L17.65 100.7L19.3 83.86L25.91 84.51L23.11 112.9L0 110.63Z" fill="black"/>
<path d="M19.75 45.5801L45.66 47.0901L39.29 58.1601L35.29 57.8901L28.97 68.8901L31.24 72.2701L24.82 83.3101L10.49 61.6701L19.75 45.5801ZM24.57 62.4701L27.5 57.3801L20.87 56.9301L24.57 62.4701Z" fill="black"/>
<path d="M50.47 16.5498C56.67 12.3298 64.22 11.3898 68.47 17.5498L69.21 18.6398C73.42 24.8098 69.79 31.4998 63.6 35.7198L46.29 47.5098L33.21 28.3298L50.47 16.5498ZM56.75 31.9398C59.25 30.2398 60.75 27.5798 58.93 24.8298C57.11 22.0798 54.02 22.5698 51.52 24.2698L46.72 27.5398L52 35.2098L56.75 31.9398Z" fill="black"/>
<path d="M95.78 0.320082C101.92 -0.769918 106.57 1.71008 107.29 5.79008L107.64 7.79008C108.38 11.9001 104.86 15.7901 98.72 16.9201L86.74 19.0001L87.86 25.3101L76.43 27.3101L72.36 4.49008L95.78 0.320082ZM95.54 10.3201C95.9135 10.2426 96.2422 10.023 96.4568 9.70769C96.6714 9.39234 96.755 9.00593 96.69 8.63008C96.6084 8.26199 96.3857 7.94058 96.0697 7.7349C95.7537 7.52923 95.3696 7.45569 95 7.53008L85 9.32008L85.51 12.1601L95.54 10.3201Z" fill="black"/>
<path d="M137.52 3.5L144.52 28.5L132 26.09L130.93 22.17L118.48 19.78L116 23L103.45 20.59L119.28 0L137.52 3.5ZM123.12 13.57L128.89 14.68L127.14 8.27L123.12 13.57Z" fill="black"/>
<path d="M159.1 11L170.28 19.59L172.37 33.75L178.43 25.86L187.64 33L173.49 51.37L164 44.09L161.36 27.4L154.29 36.61L145 29.43L159.1 11Z" fill="black"/>
<path d="M212.12 80.8002C214.12 88.0102 212.68 95.4802 205.5 97.5202L204.22 97.8902C197.04 99.8902 191.84 94.3802 189.78 87.1702L184.05 67.0702L206.39 60.7002L212.12 80.8002ZM195.53 81.9102C196.35 84.8102 198.39 87.1302 201.58 86.2202C204.77 85.3102 205.29 82.2202 204.46 79.3602L202.87 73.7802L193.93 76.3302L195.53 81.9102Z" fill="black"/>
<path d="M216.13 102.32L213.62 130.74L207.35 130.19L208.83 113.33L206.83 113.16L205.36 130L199.25 129.46L200.73 112.6L198.59 112.41L197.1 129.27L190.49 128.68L193 100.28L216.13 102.32Z" fill="black"/>
<path d="M197.08 167.56L171.14 166.32L177.39 155.18L181.45 155.4L187.66 144.35L185.35 141L191.6 129.86L206.17 151.35L197.08 167.56ZM192.08 150.71L189.2 155.83L195.84 156.21L192.08 150.71Z" fill="black"/>
<path d="M166.65 196.9C160.5 201.19 152.96 202.21 148.65 196.08L147.89 195C143.62 188.87 147.18 182.15 153.33 177.85L170.47 165.9L183.75 184.9L166.65 196.9ZM160.21 181.58C157.73 183.3 156.21 185.99 158.1 188.71C159.99 191.43 163.1 190.92 165.52 189.19L170.28 185.87L165 178.25L160.21 181.58Z" fill="black"/>
<path d="M121.53 213.61C115.4 214.77 110.72 212.34 109.95 208.27L109.58 206.27C108.8 202.17 112.27 198.2 118.4 197.04L130.4 194.78L129.21 188.49L140.62 186.33L144.93 209.15L121.53 213.61ZM121.65 203.56C121.278 203.642 120.953 203.865 120.742 204.182C120.531 204.499 120.452 204.886 120.52 205.26C120.593 205.631 120.809 205.958 121.122 206.17C121.435 206.381 121.819 206.461 122.19 206.39L132.19 204.5L131.66 201.67L121.65 203.56Z" fill="black"/>
<path d="M79.71 210.85L72.43 185.93L85 188.21L86.11 192.12L98.58 194.39L100.99 191.11L113.56 193.39L98 214.17L79.71 210.85ZM94 200.64L88.22 199.64L90 206L94 200.64Z" fill="black"/>
<path d="M58.08 203.58L46.81 195.1L44.58 181L38.58 189L29.3 182L43.3 163.44L52.85 170.62L55.68 187.28L62.68 177.99L72 185L58.08 203.58Z" fill="black"/>
</g>
<defs>
<clipPath id="clip0_216_52">
<rect width="216.13" height="214.17" fill="white"/>
</clipPath>
</defs>
</svg>
