<svg width="1661" height="337" viewBox="0 0 1661 337" fill="none" xmlns="http://www.w3.org/2000/svg">
<path d="M237 337L118.5 262.653L0 337V112.33C0.0343657 82.5488 11.8746 53.9972 32.9232 32.9387C53.9719 11.8802 82.5101 0.0343818 112.277 0L237 0V337ZM118.5 204.095L187.419 247.344V49.5947H112.277C95.6524 49.6132 79.7136 56.2287 67.958 67.9899C56.2024 79.751 49.5899 95.6973 49.5714 112.33V247.354L118.5 204.095Z" fill="url(#paint0_linear_314_2691)"/>
<g clip-path="url(#clip0_314_2691)">
<path d="M508.789 187.045H410.027C411.99 207.032 427.194 216.033 445.53 216.033C460.393 215.678 474.846 211.092 487.194 202.813L504.925 226.162C500.435 229.545 482.14 248.675 439.098 248.675C396.055 248.675 365 222.194 365 176.353C365 130.511 398.77 104.323 439.849 104.323C480.929 104.323 509.352 131.618 509.352 172.071C509.352 178.88 508.789 187.045 508.789 187.045ZM467.333 161.441C467.062 148.785 457.768 133.581 438.93 133.581C420.093 133.581 410.946 148.221 410.298 161.441H467.333Z" fill="white"/>
<path d="M619.643 248.675C599.113 248.675 584.473 241.073 575.785 228.125V296.5H530.738V106.85H573.509L573.217 124.58H573.843C583.972 112.488 598.904 104.323 619.998 104.323C659.949 104.323 685.282 135.649 685.282 176.353C685.282 217.056 659.887 248.675 619.643 248.675ZM606.715 139.784C587.564 139.784 574.344 154.403 574.344 175.789C574.344 197.174 587.564 211.751 606.715 211.751C625.866 211.751 639.336 197.132 639.336 175.726C639.336 154.32 626.054 139.784 606.715 139.784V139.784Z" fill="white"/>
<path d="M844.191 245.584H798.893V172.698C798.893 155.823 796.637 141.183 777.779 141.183C758.92 141.183 753.01 156.951 753.01 177.48V245.584H708.004V70.1557L753.01 40.5V97.5768C753.01 111.632 752.738 126.815 752.738 126.815C759.776 114.43 772.996 104.302 793.546 104.302C833.769 104.302 844.191 129.906 844.191 163.676V245.584Z" fill="white"/>
<path d="M1008.24 187.045H909.454C911.438 207.032 926.621 216.033 944.958 216.033C959.814 215.678 974.261 211.092 986.601 202.813L1004.33 226.162C999.883 229.545 981.505 248.675 938.442 248.675C895.378 248.675 864.448 222.194 864.448 176.353C864.448 130.511 898.198 104.323 939.319 104.323C980.44 104.323 1008.78 131.618 1008.78 172.071C1008.78 178.88 1008.24 187.045 1008.24 187.045ZM966.865 161.441C966.573 148.785 957.3 133.581 938.442 133.581C919.583 133.581 910.31 148.2 909.747 161.441H966.865Z" fill="white"/>
<path d="M1246.84 245.584H1201.54V170.171C1201.54 155.259 1198.72 141.183 1183.25 141.183C1167.77 141.183 1160.69 155.364 1160.69 174.389V245.584H1115.71V170.171C1115.71 153.004 1111.78 141.183 1097.14 141.183C1081.37 141.183 1074.63 155.259 1074.63 174.389V245.584H1029.6V106.85H1074.63L1074.36 126.836L1074.9 126.543C1078.85 119.876 1084.44 114.332 1091.14 110.442C1097.84 106.551 1105.43 104.444 1113.18 104.323C1132.31 104.323 1147.51 110.797 1154.53 129.655C1164.39 112.76 1178.17 104.323 1198.72 104.323C1234.23 104.323 1246.76 128.527 1246.76 162.005L1246.84 245.584Z" fill="white"/>
<path d="M1411.16 187.045H1312.4C1314.36 207.032 1329.56 216.033 1347.9 216.033C1362.76 215.682 1377.2 211.095 1389.54 202.813L1407.13 226.162C1402.64 229.545 1384.34 248.675 1341.28 248.675C1298.53 248.675 1267.37 222.194 1267.37 176.353C1267.37 130.511 1301.14 104.323 1342.22 104.323C1383.3 104.323 1411.72 131.618 1411.72 172.071C1411.72 178.88 1411.16 187.045 1411.16 187.045ZM1369.79 161.441C1369.51 148.785 1360.22 133.581 1341.36 133.581C1322.5 133.581 1313.23 148.2 1312.67 161.441H1369.79Z" fill="white"/>
<path d="M1523.7 148.221H1521.74C1516.63 145.874 1511.03 144.744 1505.41 144.922C1501.39 144.913 1497.42 145.821 1493.8 147.576C1490.18 149.331 1487.01 151.887 1484.52 155.051C1481.16 159.562 1477.49 168.563 1477.49 184.038V245.584H1432.54V106.85H1477.55L1477.28 126.543H1477.84C1485.72 111.361 1497.26 104.322 1512.18 104.322C1516.97 104.118 1521.75 104.981 1526.17 106.85L1523.7 148.221Z" fill="white"/>
<path d="M1660.18 245.584H1617.12L1616.28 230.965C1610.37 236.875 1599.12 248.696 1576.6 248.696C1552.13 248.696 1526.23 235.476 1526.23 204.525C1526.23 173.575 1554.65 163.154 1580.26 162.026L1615.16 160.627V157.452C1615.16 142.833 1604.71 135.21 1586.73 135.21C1571.75 135.671 1557.13 139.933 1544.25 147.595L1532.43 118.399C1550.91 109.288 1571.21 104.475 1591.81 104.323C1617.68 104.323 1632.59 110.233 1643.58 120.362C1654.56 130.491 1660.18 144.003 1660.18 167.351V245.584ZM1615.43 184.602L1593.21 186.001C1579.42 186.565 1571.26 192.475 1571.26 202.897C1571.26 213.318 1579.99 220.063 1592.37 220.063C1596.95 220.024 1601.45 218.844 1605.46 216.631C1609.47 214.418 1612.87 211.241 1615.34 207.387L1615.43 184.602Z" fill="white"/>
</g>
<defs>
<linearGradient id="paint0_linear_314_2691" x1="118.5" y1="-33.8859" x2="118.5" y2="345.554" gradientUnits="userSpaceOnUse">
<stop stop-color="#8C2BBB"/>
<stop offset="0.140625" stop-color="#AD2EB1"/>
<stop offset="0.286458" stop-color="#C638A7"/>
<stop offset="0.427083" stop-color="#D9489E"/>
<stop offset="0.567708" stop-color="#E75A98"/>
<stop offset="0.708333" stop-color="#F26E94"/>
<stop offset="0.854167" stop-color="#FA8293"/>
<stop offset="1" stop-color="#FF9696"/>
</linearGradient>
<clipPath id="clip0_314_2691">
<rect width="1295.18" height="256" fill="white" transform="translate(365 40.5)"/>
</clipPath>
</defs>
</svg>
