<svg width="100" height="100" viewBox="0 0 100 100" fill="none" xmlns="http://www.w3.org/2000/svg">
<path d="M49.8536 99.6094C56.657 99.6094 63.0617 98.3073 69.0675 95.7031C75.0734 93.099 80.3712 89.502 84.961 84.9121C89.5508 80.3223 93.1477 75.0244 95.7517 69.0186C98.3564 63.0127 99.6587 56.6081 99.6587 49.8047C99.6587 43.0013 98.3564 36.5967 95.7517 30.5908C93.1477 24.5849 89.5508 19.2871 84.961 14.6973C80.3712 10.1074 75.0653 6.51044 69.0431 3.9063C63.021 1.3021 56.6082 0 49.8048 0C43.0014 0 36.5968 1.3021 30.5909 3.9063C24.5851 6.51044 19.2954 10.1074 14.7218 14.6973C10.1482 19.2871 6.55935 24.5849 3.95522 30.5908C1.35104 36.5967 0.0489502 43.0013 0.0489502 49.8047C0.0489502 56.6081 1.35104 63.0127 3.95522 69.0186C6.55935 75.0244 10.1564 80.3223 14.7462 84.9121C19.3361 89.502 24.634 93.099 30.6398 95.7031C36.6456 98.3073 43.0502 99.6094 49.8536 99.6094ZM49.8536 91.3086C44.0919 91.3086 38.7045 90.2344 33.6915 88.0859C28.6785 85.9375 24.2759 82.9671 20.4835 79.1748C16.6912 75.3825 13.729 70.9798 11.5968 65.9668C9.46462 60.9538 8.39852 55.5664 8.39852 49.8047C8.39852 44.043 9.46462 38.6556 11.5968 33.6426C13.729 28.6296 16.6831 24.2188 20.4591 20.4102C24.2352 16.6016 28.6297 13.6312 33.6427 11.499C38.6557 9.36687 44.0431 8.3008 49.8048 8.3008C55.5666 8.3008 60.9539 9.36687 65.9669 11.499C70.9799 13.6312 75.3907 16.6016 79.1993 20.4102C83.0079 24.2188 85.9865 28.6296 88.1349 33.6426C90.2835 38.6556 91.3577 44.043 91.3577 49.8047C91.3577 55.5664 90.2916 60.9538 88.1593 65.9668C86.0271 70.9798 83.0649 75.3825 79.2726 79.1748C75.4803 82.9671 71.0695 85.9375 66.0401 88.0859C61.0109 90.2344 55.6154 91.3086 49.8536 91.3086Z" fill="black"/>
<path d="M71.3868 53.9064C71.9077 54.3947 72.4367 54.6469 72.9737 54.6632C73.5109 54.6795 74.0399 54.4435 74.5607 53.9552L81.836 46.7286C82.3244 46.2729 82.5604 45.7683 82.5441 45.2149C82.5278 44.6616 82.2592 44.1245 81.7384 43.6036L79.9806 41.8458C79.4924 41.3575 79.0692 41.0483 78.711 40.9181C78.353 40.7879 77.9135 40.7553 77.3927 40.8204L74.6095 41.1134L72.754 39.3556L73.5841 35.9376C74.0073 34.2123 73.34 32.4871 71.5821 30.7618L66.7482 25.9278C64.5021 23.7143 61.784 22.1762 58.5939 21.3136C55.4038 20.4509 52.2055 20.3451 48.9991 20.9962C45.7928 21.6473 43.034 23.1121 40.7228 25.3907C40.1369 25.9766 39.8602 26.5626 39.8927 27.1485C39.9253 27.7345 40.1206 28.2391 40.4786 28.6622C40.7716 28.9226 41.1297 29.1179 41.5528 29.2482C41.976 29.3784 42.3992 29.3621 42.8224 29.1993C45.1662 28.5157 47.3634 28.1658 49.4142 28.1495C51.465 28.1332 53.3693 28.6459 55.1271 29.6876L53.2716 34.5704C52.5555 36.4585 52.8647 38.0861 54.1993 39.4532L59.5704 44.8243C60.4819 45.7358 61.7026 46.045 63.2325 45.7521L67.0899 44.9708L68.8966 46.8263L68.6036 49.6095C68.5711 50.1303 68.6118 50.586 68.7257 50.9767C68.8397 51.3673 69.1245 51.7742 69.5802 52.1974L71.3868 53.9064ZM28.3204 74.7071C29.4272 75.8139 30.5747 76.3266 31.7628 76.2452C32.951 76.1639 34.0822 75.5047 35.1564 74.2677L57.6173 48.7306L50.3907 41.5528L24.8048 63.8673C23.5678 64.9741 22.9087 66.1216 22.8273 67.3097C22.7459 68.4978 23.2586 69.629 24.3653 70.7032L28.3204 74.7071Z" fill="black"/>
</svg>
