<svg width="101" height="100" viewBox="0 0 101 100" fill="none" xmlns="http://www.w3.org/2000/svg">
<path d="M13.8175 77.5391L19.4816 83.0566L46.7277 58.252V95.1172H54.589V58.3984L81.6886 83.0566L87.3527 77.5391L54.589 47.3633V4.541H46.7277V47.2168L13.8175 77.5391ZM50.6339 99.6094C57.4373 99.6094 63.8419 98.3073 69.8478 95.7031C75.8537 93.099 81.1515 89.502 85.7413 84.9121C90.3311 80.3223 93.928 75.0244 96.532 69.0186C99.1367 63.0127 100.439 56.6081 100.439 49.8047C100.439 43.0013 99.1367 36.5967 96.532 30.5908C93.928 24.5849 90.3311 19.2871 85.7413 14.6973C81.1515 10.1074 75.8455 6.51044 69.8234 3.9063C63.8013 1.3021 57.3885 0 50.5851 0C43.7817 0 37.3771 1.3021 31.3712 3.9063C25.3653 6.51044 20.0756 10.1074 15.5021 14.6973C10.9285 19.2871 7.33963 24.5849 4.73549 30.5908C2.13131 36.5967 0.829224 43.0013 0.829224 49.8047C0.829224 56.6081 2.13131 63.0127 4.73549 69.0186C7.33963 75.0244 10.9366 80.3223 15.5265 84.9121C20.1164 89.502 25.4142 93.099 31.4201 95.7031C37.4259 98.3073 43.8305 99.6094 50.6339 99.6094ZM50.6339 91.3086C44.8722 91.3086 39.4848 90.2344 34.4718 88.0859C29.4588 85.9375 25.0561 82.9671 21.2638 79.1748C17.4715 75.3825 14.5092 70.9798 12.3771 65.9668C10.2449 60.9538 9.17879 55.5664 9.17879 49.8047C9.17879 44.043 10.2449 38.6556 12.3771 33.6426C14.5092 28.6296 17.4633 24.2188 21.2394 20.4102C25.0155 16.6016 29.41 13.6312 34.423 11.499C39.436 9.36687 44.8234 8.3008 50.5851 8.3008C56.3468 8.3008 61.7342 9.36687 66.7472 11.499C71.7602 13.6312 76.171 16.6016 79.9796 20.4102C83.7882 24.2188 86.7667 28.6296 88.9152 33.6426C91.0637 38.6556 92.138 44.043 92.138 49.8047C92.138 55.5664 91.0719 60.9538 88.9396 65.9668C86.8074 70.9798 83.8452 75.3825 80.0529 79.1748C76.2606 82.9671 71.8497 85.9375 66.8204 88.0859C61.7911 90.2344 56.3956 91.3086 50.6339 91.3086Z" fill="black"/>
</svg>
