<svg width="100" height="100" viewBox="0 0 100 100" fill="none" xmlns="http://www.w3.org/2000/svg">
<path d="M79.4676 83.6426L84.3992 79.0527L56.5672 51.5625L89.9656 32.3731L86.6941 26.709L53.8328 45.5566V6.3965H47.2898V50.4883C47.2898 51.0417 47.3712 51.5463 47.534 52.002C47.6967 52.4577 48.0059 52.8972 48.4617 53.3203L79.4676 83.6426ZM50.0242 99.6094C56.8276 99.6094 63.2322 98.3073 69.2381 95.7031C75.2439 93.099 80.5418 89.502 85.1316 84.9121C89.7214 80.3223 93.3183 75.0244 95.9223 69.0186C98.5269 63.0127 99.8293 56.6081 99.8293 49.8047C99.8293 43.0013 98.5269 36.5967 95.9223 30.5908C93.3183 24.5849 89.7214 19.2871 85.1316 14.6973C80.5418 10.1074 75.2358 6.51044 69.2137 3.9063C63.1915 1.3021 56.7788 0 49.9754 0C43.172 0 36.7673 1.3021 30.7615 3.9063C24.7556 6.51044 19.4659 10.1074 14.8924 14.6973C10.3188 19.2871 6.72989 24.5849 4.12575 30.5908C1.52157 36.5967 0.219482 43.0013 0.219482 49.8047C0.219482 56.6081 1.52157 63.0127 4.12575 69.0186C6.72989 75.0244 10.3269 80.3223 14.9168 84.9121C19.5066 89.502 24.8045 93.099 30.8104 95.7031C36.8162 98.3073 43.2207 99.6094 50.0242 99.6094ZM50.0242 91.3086C44.2624 91.3086 38.8751 90.2344 33.8621 88.0859C28.8491 85.9375 24.4464 82.9671 20.6541 79.1748C16.8617 75.3825 13.8995 70.9798 11.7674 65.9668C9.63515 60.9538 8.56905 55.5664 8.56905 49.8047C8.56905 44.043 9.63515 38.6556 11.7674 33.6426C13.8995 28.6296 16.8536 24.2188 20.6297 20.4102C24.4057 16.6016 28.8003 13.6312 33.8133 11.499C38.8263 9.36687 44.2136 8.3008 49.9754 8.3008C55.7371 8.3008 61.1245 9.36687 66.1375 11.499C71.1505 13.6312 75.5613 16.6016 79.3699 20.4102C83.1785 24.2188 86.157 28.6296 88.3055 33.6426C90.454 38.6556 91.5283 44.043 91.5283 49.8047C91.5283 55.5664 90.4621 60.9538 88.3299 65.9668C86.1977 70.9798 83.2354 75.3825 79.4432 79.1748C75.6508 82.9671 71.24 85.9375 66.2107 88.0859C61.1814 90.2344 55.7859 91.3086 50.0242 91.3086Z" fill="black"/>
</svg>
