<svg width="101" height="100" viewBox="0 0 101 100" fill="none" xmlns="http://www.w3.org/2000/svg">
<path d="M50.4144 99.6094C57.2178 99.6094 63.6224 98.3073 69.6283 95.7031C75.6342 93.099 80.932 89.502 85.5218 84.9121C90.1116 80.3223 93.7085 75.0244 96.3125 69.0186C98.9172 63.0127 100.22 56.6081 100.22 49.8047C100.22 43.0013 98.9172 36.5967 96.3125 30.5908C93.7085 24.5849 90.1116 19.2871 85.5218 14.6973C80.932 10.1074 75.626 6.51044 69.6039 3.9063C63.5818 1.3021 57.169 0 50.3656 0C43.5622 0 37.1576 1.3021 31.1517 3.9063C25.1458 6.51044 19.8561 10.1074 15.2826 14.6973C10.709 19.2871 7.12014 24.5849 4.51601 30.5908C1.91183 36.5967 0.609741 43.0013 0.609741 49.8047C0.609741 56.6081 1.91183 63.0127 4.51601 69.0186C7.12014 75.0244 10.7171 80.3223 15.307 84.9121C19.8969 89.502 25.1947 93.099 31.2006 95.7031C37.2064 98.3073 43.611 99.6094 50.4144 99.6094ZM50.4144 91.3086C44.6527 91.3086 39.2653 90.2344 34.2523 88.0859C29.2393 85.9375 24.8366 82.9671 21.0443 79.1748C17.252 75.3825 14.2897 70.9798 12.1576 65.9668C10.0254 60.9538 8.95931 55.5664 8.95931 49.8047C8.95931 44.043 10.0254 38.6556 12.1576 33.6426C14.2897 28.6296 17.2438 24.2188 21.0199 20.4102C24.796 16.6016 29.1905 13.6312 34.2035 11.499C39.2165 9.36687 44.6039 8.3008 50.3656 8.3008C56.1273 8.3008 61.5147 9.36687 66.5277 11.499C71.5407 13.6312 75.9515 16.6016 79.7601 20.4102C83.5687 24.2188 86.5472 28.6296 88.6957 33.6426C90.8443 38.6556 91.9185 44.043 91.9185 49.8047C91.9185 55.5664 90.8524 60.9538 88.7201 65.9668C86.5879 70.9798 83.6257 75.3825 79.8334 79.1748C76.0411 82.9671 71.6302 85.9375 66.6009 88.0859C61.5716 90.2344 56.1761 91.3086 50.4144 91.3086Z" fill="black"/>
<path d="M50.5121 22.3145C47.4522 22.3145 44.4736 22.819 41.5765 23.8281C38.6794 24.8372 36.1729 26.2207 34.057 27.9785C32.8851 28.8899 32.1853 29.9235 31.9574 31.0791C31.7295 32.2347 32.0225 33.2519 32.8363 34.1309C33.7152 35.0749 34.6755 35.5062 35.7172 35.4248C36.7589 35.3434 37.768 34.9446 38.7445 34.2285C40.5023 32.8613 42.3089 31.8196 44.1644 31.1035C46.0199 30.3873 48.1358 30.0293 50.5121 30.0293C53.7348 30.0293 56.7214 30.6884 59.472 32.0068C62.2227 33.3252 64.5583 35.1318 66.4789 37.4268C68.3994 39.7216 69.7178 42.3176 70.434 45.2148H65.014C63.8747 45.2148 63.1829 45.6461 62.9388 46.5088C62.6947 47.3714 62.8819 48.2421 63.5004 49.1211L71.4105 60.1562C72.0616 61.0351 72.8754 61.499 73.8519 61.5479C74.8285 61.5967 75.6586 61.1328 76.3422 60.1562L84.1547 49.1211C84.8057 48.2421 85.0091 47.3714 84.765 46.5088C84.5209 45.6461 83.8291 45.2148 82.6898 45.2148H77.807C76.9932 40.69 75.3168 36.7106 72.7777 33.2764C70.2386 29.8421 67.0485 27.1565 63.2074 25.2197C59.3663 23.2829 55.1345 22.3145 50.5121 22.3145ZM50.6097 77.0019C53.637 77.0019 56.5993 76.5055 59.4965 75.5126C62.3936 74.5198 64.9001 73.1445 67.016 71.3867C68.1879 70.4426 68.8959 69.401 69.14 68.2617C69.3841 67.1223 69.083 66.097 68.2367 65.1856C67.3904 64.2741 66.4382 63.8509 65.3802 63.916C64.3223 63.9811 63.3213 64.3717 62.3773 65.0879C60.6195 66.4551 58.8047 67.5049 56.933 68.2373C55.0613 68.9697 52.9535 69.3359 50.6097 69.3359C47.3545 69.3359 44.3516 68.6686 41.6009 67.334C38.8503 65.9993 36.5147 64.1845 34.5941 61.8897C32.6736 59.5947 31.3552 56.9987 30.639 54.1016H35.766C36.9053 54.1016 37.6052 53.6702 37.8656 52.8076C38.126 51.945 37.947 51.0742 37.3285 50.1953L29.3695 39.209C28.7184 38.2975 27.9046 37.8255 26.9281 37.793C25.9516 37.7604 25.1215 38.2324 24.4379 39.209L16.6254 50.1953C16.0069 51.0742 15.8197 51.945 16.0638 52.8076C16.3079 53.6702 16.9997 54.1016 18.139 54.1016H23.3148C24.0961 58.6263 25.7562 62.6058 28.2953 66.04C30.8344 69.4742 34.0245 72.1598 37.8656 74.0967C41.7067 76.0335 45.9548 77.0019 50.6097 77.0019Z" fill="black"/>
</svg>
