<svg width="100" height="100" viewBox="0 0 100 100" fill="none" xmlns="http://www.w3.org/2000/svg">
<path d="M49.8047 99.6094C56.6081 99.6094 63.0127 98.3073 69.0186 95.7031C75.0244 93.099 80.3223 89.502 84.9121 84.9121C89.5019 80.3223 93.0988 75.0244 95.7028 69.0186C98.3074 63.0127 99.6098 56.6081 99.6098 49.8047C99.6098 43.0013 98.3074 36.5967 95.7028 30.5908C93.0988 24.5849 89.5019 19.2871 84.9121 14.6973C80.3223 10.1074 75.0163 6.51044 68.9942 3.9063C62.972 1.3021 56.5593 0 49.7559 0C42.9525 0 36.5478 1.3021 30.542 3.9063C24.5361 6.51044 19.2464 10.1074 14.6729 14.6973C10.0993 19.2871 6.5104 24.5849 3.90627 30.5908C1.30209 36.5967 0 43.0013 0 49.8047C0 56.6081 1.30209 63.0127 3.90627 69.0186C6.5104 75.0244 10.1074 80.3223 14.6973 84.9121C19.2871 89.502 24.585 93.099 30.5909 95.7031C36.5967 98.3073 43.0013 99.6094 49.8047 99.6094ZM49.8047 91.3086C44.0429 91.3086 38.6556 90.2344 33.6426 88.0859C28.6296 85.9375 24.2269 82.9671 20.4346 79.1748C16.6422 75.3825 13.68 70.9798 11.5479 65.9668C9.41567 60.9538 8.34957 55.5664 8.34957 49.8047C8.34957 44.043 9.41567 38.6556 11.5479 33.6426C13.68 28.6296 16.6341 24.2188 20.4102 20.4102C24.1862 16.6016 28.5808 13.6312 33.5938 11.499C38.6068 9.36687 43.9941 8.3008 49.7559 8.3008C55.5176 8.3008 60.905 9.36687 65.918 11.499C70.931 13.6312 75.3418 16.6016 79.1504 20.4102C82.959 24.2188 85.9375 28.6296 88.086 33.6426C90.2345 38.6556 91.3088 44.043 91.3088 49.8047C91.3088 55.5664 90.2426 60.9538 88.1104 65.9668C85.9782 70.9798 83.0159 75.3825 79.2237 79.1748C75.4313 82.9671 71.0205 85.9375 65.9912 88.0859C60.9619 90.2344 55.5664 91.3086 49.8047 91.3086Z" fill="black"/>
<path d="M49.7559 40.5762C51.6113 40.5762 53.2064 39.9088 54.541 38.5742C55.8756 37.2396 56.543 35.6608 56.543 33.8379C56.543 31.9499 55.8756 30.3467 54.541 29.0283C53.2064 27.7099 51.6113 27.0508 49.7559 27.0508C47.9004 27.0833 46.3135 27.7506 44.9952 29.0527C43.6768 30.3548 43.0176 31.9499 43.0176 33.8379C43.0176 35.6608 43.6768 37.2396 44.9952 38.5742C46.3135 39.9088 47.9004 40.5762 49.7559 40.5762ZM49.7559 72.4609C51.6113 72.4609 53.2064 71.7936 54.541 70.459C55.8756 69.1243 56.543 67.5292 56.543 65.6738C56.543 63.8509 55.8756 62.2722 54.541 60.9375C53.2064 59.6029 51.6113 58.9356 49.7559 58.9356C47.9004 58.9356 46.3135 59.6029 44.9952 60.9375C43.6768 62.2722 43.0176 63.8509 43.0176 65.6738C43.0176 67.5292 43.6768 69.1243 44.9952 70.459C46.3135 71.7936 47.9004 72.4609 49.7559 72.4609ZM49.7559 56.4941C51.6113 56.4941 53.2064 55.8268 54.541 54.4922C55.8756 53.1575 56.543 51.5787 56.543 49.7559C56.543 47.9004 55.8756 46.3054 54.541 44.9707C53.2064 43.6361 51.6113 42.985 49.7559 43.0176C47.9004 43.0176 46.3135 43.6768 44.9952 44.9951C43.6768 46.3135 43.0176 47.9004 43.0176 49.7559C43.0176 51.5787 43.6768 53.1575 44.9952 54.4922C46.3135 55.8268 47.9004 56.4941 49.7559 56.4941ZM32.7149 72.4609C34.5703 72.4609 36.1572 71.8017 37.4756 70.4834C38.794 69.1651 39.4532 67.5618 39.4532 65.6738C39.4532 63.8509 38.794 62.2722 37.4756 60.9375C36.1572 59.6029 34.5703 58.9356 32.7149 58.9356C30.8919 58.9356 29.3132 59.6029 27.9786 60.9375C26.6439 62.2722 25.9766 63.8509 25.9766 65.6738C25.9766 67.5292 26.6439 69.1243 27.9786 70.459C29.3132 71.7936 30.8919 72.4609 32.7149 72.4609ZM32.7149 40.5762C34.5703 40.5762 36.1572 39.9088 37.4756 38.5742C38.794 37.2396 39.4532 35.6608 39.4532 33.8379C39.4532 31.9824 38.794 30.3873 37.4756 29.0527C36.1572 27.7181 34.5703 27.0508 32.7149 27.0508C30.8919 27.0508 29.3132 27.7181 27.9786 29.0527C26.6439 30.3873 25.9766 31.9824 25.9766 33.8379C25.9766 35.6608 26.6439 37.2396 27.9786 38.5742C29.3132 39.9088 30.8919 40.5762 32.7149 40.5762ZM66.7969 40.5762C68.6523 40.5762 70.2393 39.9088 71.5577 38.5742C72.876 37.2396 73.5352 35.6608 73.5352 33.8379C73.5352 31.9499 72.876 30.3467 71.5577 29.0283C70.2393 27.7099 68.6523 27.0508 66.7969 27.0508C64.9414 27.0833 63.3626 27.7506 62.0606 29.0527C60.7585 30.3548 60.1075 31.9499 60.1075 33.8379C60.1075 35.6608 60.7585 37.2396 62.0606 38.5742C63.3626 39.9088 64.9414 40.5762 66.7969 40.5762ZM66.7969 72.4609C68.6523 72.4609 70.2393 71.7936 71.5577 70.459C72.876 69.1243 73.5352 67.5292 73.5352 65.6738C73.5352 63.8509 72.876 62.2722 71.5577 60.9375C70.2393 59.6029 68.6523 58.9356 66.7969 58.9356C64.9414 58.9356 63.3626 59.6029 62.0606 60.9375C60.7585 62.2722 60.1075 63.8509 60.1075 65.6738C60.1075 67.5292 60.7585 69.1243 62.0606 70.459C63.3626 71.7936 64.9414 72.4609 66.7969 72.4609ZM32.7149 56.4941C34.5703 56.4941 36.1572 55.8268 37.4756 54.4922C38.794 53.1575 39.4532 51.5787 39.4532 49.7559C39.4532 47.9004 38.794 46.3054 37.4756 44.9707C36.1572 43.6361 34.5703 42.985 32.7149 43.0176C30.8919 43.0176 29.3132 43.6768 27.9786 44.9951C26.6439 46.3135 25.9766 47.9004 25.9766 49.7559C25.9766 51.5787 26.6439 53.1575 27.9786 54.4922C29.3132 55.8268 30.8919 56.4941 32.7149 56.4941ZM66.7969 56.4941C68.6523 56.4941 70.2393 55.8268 71.5577 54.4922C72.876 53.1575 73.5352 51.5787 73.5352 49.7559C73.5352 47.9004 72.876 46.3054 71.5577 44.9707C70.2393 43.6361 68.6523 42.985 66.7969 43.0176C64.9414 43.0176 63.3626 43.6768 62.0606 44.9951C60.7585 46.3135 60.1075 47.9004 60.1075 49.7559C60.1075 51.5787 60.7585 53.1575 62.0606 54.4922C63.3626 55.8268 64.9414 56.4941 66.7969 56.4941Z" fill="black"/>
</svg>
