<svg xmlns="http://www.w3.org/2000/svg" viewBox="0 0 351.08 49.76"><defs><style>.cls-1{fill:#F2E0BD;}</style></defs><g id="Layer_2" data-name="Layer 2"><g id="Layer_1-2" data-name="Layer 1"><path class="cls-1" d="M24.88,49.76A24.88,24.88,0,1,1,49.76,24.88,24.91,24.91,0,0,1,24.88,49.76Zm0-44.93a20.05,20.05,0,1,0,20.05,20A20.07,20.07,0,0,0,24.88,4.83Z"/><ellipse class="cls-1" cx="18.14" cy="21.1" rx="2.88" ry="3.71"/><ellipse class="cls-1" cx="31.64" cy="21.1" rx="2.88" ry="3.71"/><rect class="cls-1" x="15.24" y="29.5" width="19.28" height="2.87"/><path class="cls-1" d="M85.69,10.89c8,0,15.23,3.72,15.23,11.68V24c0,8-7.23,11.69-15.23,11.69H63.38V10.89ZM82,28.24c3.22,0,6.2-1.42,6.2-5s-3-5-6.2-5h-6.2v9.92Z"/><path class="cls-1" d="M105.51,10.89H136v6.73H117.91v2.12H136v6.55H117.91v2.3H136v7.09H105.51Z"/><path class="cls-1" d="M171.73,10.89l12.4,24.79H170.49l-1.91-3.9H155.05l-1.91,3.9H139.51L151.9,10.89ZM158.67,24.34h6.26L161.82,18Z"/><path class="cls-1" d="M210,10.89c8,0,15.23,3.72,15.23,11.68V24c0,8-7.22,11.69-15.23,11.69H187.66V10.89Zm-3.72,17.35c3.23,0,6.2-1.42,6.2-5s-3-5-6.2-5h-6.19v9.92Z"/><path class="cls-1" d="M255.19,10.89c6.66,0,11.08,3.47,11.08,7.89v2.13c0,4.46-4.42,7.93-11.08,7.93h-13v6.84H229.8V10.89ZM253.06,21.4a1.56,1.56,0,0,0,1.53-1.55,1.54,1.54,0,0,0-1.53-1.53H242.19V21.4Z"/><path class="cls-1" d="M296.72,10.89l12.4,24.79H295.48l-1.91-3.9H280l-1.91,3.9H264.5l12.39-24.79ZM283.66,24.34h6.26L286.81,18Z"/><path class="cls-1" d="M312.65,10.89H327.7l11,10.62V10.89h12.4V35.68H338.33l-13.11-12.4v12.4H312.65Z"/></g></g></svg>