<svg xmlns="http://www.w3.org/2000/svg" viewBox="0 0 216.13 214.17"><defs><style>.cls-1{fill:#231f20;}</style></defs><g id="Layer_2" data-name="Layer 2"><g id="Layer_1-2" data-name="Layer 1"><ellipse class="cls-1" cx="84.61" cy="93.86" rx="10.02" ry="12.92"/><ellipse class="cls-1" cx="131.64" cy="93.86" rx="10.02" ry="12.92"/><rect class="cls-1" x="74.51" y="123.14" width="67.15" height="9.98"/><path class="cls-1" d="M3.79,132.17c-2-7.23-.4-14.67,6.8-16.65l1.28-.34c7.2-2,12.34,3.63,14.32,10.86l5.52,20.16-22.4,6.13Zm16.6-.93c-.79-2.91-2.81-5.25-6-4.37s-3.74,3.91-3,6.82l1.54,5.6,9-2.45Z"/><path class="cls-1" d="M0,110.63l2.79-28.4,6.28.62L7.41,99.69l2,.2,1.66-16.84,6.11.6L15.5,100.49l2.15.21L19.3,83.86l6.61.65-2.8,28.39Z"/><path class="cls-1" d="M19.75,45.58l25.91,1.51L39.29,58.16l-4-.27-6.32,11,2.27,3.38L24.82,83.31,10.49,61.67Zm4.82,16.89,2.93-5.09-6.63-.45Z"/><path class="cls-1" d="M50.47,16.55c6.2-4.22,13.75-5.16,18,1l.74,1.09c4.21,6.17.58,12.86-5.61,17.08L46.29,47.51,33.21,28.33Zm6.28,15.39c2.5-1.7,4-4.36,2.18-7.11s-4.91-2.26-7.41-.56l-4.8,3.27L52,35.21Z"/><path class="cls-1" d="M95.78.32c6.14-1.09,10.79,1.39,11.51,5.47l.35,2c.74,4.11-2.78,8-8.92,9.13L86.74,19l1.12,6.31-11.43,2L72.36,4.49Zm-.24,10a1.47,1.47,0,0,0,1.15-1.69A1.44,1.44,0,0,0,95,7.53L85,9.32l.51,2.84Z"/><path class="cls-1" d="M137.52,3.5l7,25L132,26.09l-1.07-3.92-12.45-2.39L116,23l-12.55-2.41L119.28,0Zm-14.4,10.07,5.77,1.11-1.75-6.41Z"/><path class="cls-1" d="M159.1,11l11.18,8.59,2.09,14.16,6.06-7.89L187.64,33,173.49,51.37,164,44.09,161.36,27.4l-7.07,9.21L145,29.43Z"/><path class="cls-1" d="M212.12,80.8c2,7.21.56,14.68-6.62,16.72l-1.28.37c-7.18,2-12.38-3.51-14.44-10.72l-5.73-20.1,22.34-6.37Zm-16.59,1.11c.82,2.9,2.86,5.22,6.05,4.31s3.71-4,2.88-6.86l-1.59-5.58-8.94,2.55Z"/><path class="cls-1" d="M216.13,102.32l-2.51,28.42-6.27-.55,1.48-16.86-2-.17L205.36,130l-6.11-.54,1.48-16.86-2.14-.19-1.49,16.86-6.61-.59L193,100.28Z"/><path class="cls-1" d="M197.08,167.56l-25.94-1.24,6.25-11.14,4.06.22,6.21-11.05L185.35,141l6.25-11.14,14.57,21.49Zm-5-16.85-2.88,5.12,6.64.38Z"/><path class="cls-1" d="M166.65,196.9c-6.15,4.29-13.69,5.31-18-.82l-.76-1.08c-4.27-6.13-.71-12.85,5.44-17.15l17.14-11.95,13.28,19Zm-6.44-15.32c-2.48,1.72-4,4.41-2.11,7.13s5,2.21,7.42.48l4.76-3.32L165,178.25Z"/><path class="cls-1" d="M121.53,213.61c-6.13,1.16-10.81-1.27-11.58-5.34l-.37-2c-.78-4.1,2.69-8.07,8.82-9.23l12-2.26-1.19-6.29,11.41-2.16,4.31,22.82Zm.12-10.05a1.47,1.47,0,0,0-1.13,1.7,1.43,1.43,0,0,0,1.67,1.13l10-1.89-.53-2.83Z"/><path class="cls-1" d="M79.71,210.85l-7.28-24.92L85,188.21l1.11,3.91,12.47,2.27,2.41-3.28,12.57,2.28L98,214.17ZM94,200.64l-5.78-1L90,206Z"/><path class="cls-1" d="M58.08,203.58,46.81,195.1,44.58,181l-6,8-9.28-7,14-18.56,9.55,7.18,2.83,16.66,7-9.29L72,185Z"/></g></g></svg>