<svg width="100" height="82" viewBox="0 0 100 82" fill="none" xmlns="http://www.w3.org/2000/svg">
<path d="M0 81.3754C0 72.3973 0.191022 61.7956 0.573065 49.5702C1.14613 32.1872 3.91595 19.5797 8.88252 11.7479C13.8491 3.91595 22.6361 0 35.2436 0L38.682 14.6132C31.8052 14.8042 27.1251 17.0965 24.6418 21.49C22.3496 25.6925 21.2034 31.9962 21.2034 40.4011H41.2608V81.3754H0ZM58.7393 81.3754C58.7393 72.3973 58.9303 61.7956 59.3123 49.5702C59.8854 32.1872 62.6552 19.5797 67.6218 11.7479C72.5884 3.91595 81.3754 0 93.9828 0L97.4212 14.6132C90.5444 14.8042 85.8644 17.0965 83.3811 21.49C81.0888 25.6925 79.9427 31.9962 79.9427 40.4011H100V81.3754H58.7393Z" fill="#F2897F"/>
</svg>
